<?xml version="1.0" standalone="no"?>
<!DOCTYPE svg PUBLIC "-//W3C//DTD SVG 20010904//EN"
 "http://www.w3.org/TR/2001/REC-SVG-20010904/DTD/svg10.dtd">
<svg version="1.0" xmlns="http://www.w3.org/2000/svg"
 width="700.000000pt" height="700.000000pt" viewBox="0 0 700.000000 700.000000"
 preserveAspectRatio="xMidYMid meet">
<metadata>
Created by potrace 1.14, written by Peter Selinger 2001-2017
</metadata>
<g transform="translate(0.000000,700.000000) scale(0.100000,-0.100000)"
fill="#000000" stroke="none">
<path d="M3262 6179 c-34 -5 -79 -11 -100 -14 -20 -4 -50 -9 -67 -11 -16 -3
-37 -8 -45 -11 -19 -8 -29 -10 -58 -11 -15 -1 -21 -6 -16 -14 5 -7 3 -8 -5 -4
-16 10 -141 -25 -134 -38 3 -5 1 -6 -5 -2 -17 10 -242 -79 -242 -96 0 -5 -4
-7 -9 -3 -5 3 -33 -8 -61 -25 -28 -16 -55 -30 -61 -30 -5 0 -12 -6 -15 -13 -3
-8 -10 -14 -17 -14 -20 0 -67 -34 -61 -44 3 -5 -1 -6 -9 -3 -8 3 -21 -1 -29
-8 -7 -7 -21 -17 -30 -23 -18 -11 -135 -100 -158 -121 -92 -80 -148 -138 -143
-147 3 -5 2 -7 -4 -4 -8 5 -63 -43 -63 -56 0 -2 -16 -21 -35 -41 -19 -21 -32
-42 -29 -48 4 -6 2 -8 -3 -5 -14 9 -37 -19 -27 -34 4 -7 3 -9 -4 -5 -12 7 -95
-108 -85 -118 4 -3 2 -6 -4 -6 -21 0 -192 -323 -196 -370 -1 -11 -4 -20 -8
-20 -4 0 -10 -15 -14 -32 -4 -18 -13 -46 -20 -63 -15 -35 -45 -147 -49 -179
-1 -12 -5 -27 -9 -33 -4 -6 -9 -35 -13 -64 -3 -30 -8 -57 -10 -60 -24 -42 -25
-502 0 -639 25 -141 62 -279 102 -388 254 -689 840 -1192 1558 -1337 238 -48
528 -52 769 -10 772 135 1403 690 1640 1442 69 216 91 372 91 623 0 213 -20
400 -45 408 -5 2 -7 8 -3 13 9 16 -16 120 -28 113 -6 -4 -8 -2 -5 4 9 13 -14
113 -24 106 -4 -2 -6 4 -4 14 3 17 -10 56 -36 104 -5 10 -9 22 -9 28 0 12 -90
196 -125 255 -13 22 -31 54 -41 70 -31 54 -81 114 -89 107 -5 -4 -5 -2 -1 5 8
15 -55 103 -70 98 -6 -2 -11 4 -10 13 0 10 -5 16 -14 14 -8 -2 -12 0 -8 4 11
10 -52 85 -65 77 -7 -3 -9 -3 -5 2 8 8 -81 102 -94 98 -4 -2 -10 6 -13 17 -6
18 -17 24 -37 21 -5 0 -7 3 -5 8 3 13 -84 82 -95 74 -7 -3 -8 -1 -4 5 7 11
-26 35 -38 27 -3 -3 -4 -2 -1 1 7 10 -44 46 -55 39 -6 -4 -9 -2 -8 5 2 6 -10
18 -27 28 -16 9 -33 21 -36 26 -4 5 -14 6 -22 3 -10 -4 -14 -1 -11 6 4 12 -49
41 -73 40 -7 0 -11 3 -8 6 7 12 -173 94 -190 87 -9 -3 -14 -2 -11 3 5 8 -11
19 -39 27 -5 1 -43 14 -84 28 -40 14 -77 23 -82 20 -5 -3 -9 0 -9 6 0 6 -4 9
-9 5 -5 -3 -13 -1 -16 5 -5 8 -12 7 -23 -2 -9 -7 -13 -8 -9 -2 8 13 -77 39
-94 29 -5 -4 -9 -3 -9 2 0 8 -49 16 -112 17 -21 1 -38 4 -38 8 0 4 -16 7 -35
6 -19 -1 -38 2 -41 5 -4 3 -16 2 -27 -4 -14 -8 -18 -8 -12 1 8 13 -260 12
-373 -1z m-327 -99 c3 -6 -1 -7 -9 -4 -18 7 -21 14 -7 14 6 0 13 -4 16 -10z
m195 -34 c0 -2 -7 -7 -16 -10 -8 -3 -12 -2 -9 4 6 10 25 14 25 6z m805 -6 c-3
-5 -12 -10 -18 -10 -7 0 -6 4 3 10 19 12 23 12 15 0z m195 0 c0 -5 -2 -10 -4
-10 -3 0 -8 5 -11 10 -3 6 -1 10 4 10 6 0 11 -4 11 -10z m-287 -75 c-3 -9 -8
-14 -10 -11 -3 3 -2 9 2 15 9 16 15 13 8 -4z m-228 -85 c-3 -5 -12 -10 -18
-10 -7 0 -6 4 3 10 19 12 23 12 15 0z m-1280 -320 c-3 -5 -12 -10 -18 -10 -7
0 -6 4 3 10 19 12 23 12 15 0z m1988 -75 c-3 -9 -8 -14 -10 -11 -3 3 -2 9 2
15 9 16 15 13 8 -4z m645 -10 c-3 -3 -9 2 -12 12 -6 14 -5 15 5 6 7 -7 10 -15
7 -18z m-2398 5 c0 -5 -5 -10 -11 -10 -5 0 -7 5 -4 10 3 6 8 10 11 10 2 0 4
-4 4 -10z m481 -77 c13 -16 12 -17 -3 -4 -10 7 -18 15 -18 17 0 8 8 3 21 -13z
m-166 -3 c3 -5 1 -10 -4 -10 -6 0 -11 5 -11 10 0 6 2 10 4 10 3 0 8 -4 11 -10z
m660 -40 c-4 -6 16 -11 52 -12 79 -2 95 -4 114 -12 9 -4 32 -8 53 -9 20 -1 36
-4 36 -7 0 -3 8 -6 18 -7 29 -2 47 -8 53 -16 3 -4 19 -9 36 -10 17 -1 29 -5
27 -8 -2 -3 15 -12 38 -18 23 -7 51 -19 63 -27 12 -8 25 -11 28 -7 4 3 7 1 7
-5 0 -7 7 -12 15 -12 8 0 15 -5 15 -11 0 -6 9 -9 20 -6 11 3 18 2 15 -3 -4 -6
69 -57 97 -69 9 -4 67 -55 142 -128 36 -33 68 -58 71 -55 4 4 5 2 3 -3 -5 -17
29 -58 43 -50 8 5 10 4 5 -3 -6 -10 15 -54 34 -72 13 -13 49 -69 65 -102 9
-21 22 -38 27 -38 5 0 6 -4 3 -10 -5 -8 19 -64 35 -80 3 -3 5 -9 5 -15 1 -22
29 -95 36 -95 5 0 5 -7 2 -17 -4 -9 -2 -14 3 -11 5 4 9 -8 10 -25 0 -31 4 -54
24 -142 10 -42 6 -319 -4 -370 -21 -97 -52 -208 -74 -265 -191 -477 -646 -791
-1152 -794 -193 -1 -300 19 -478 88 -314 121 -569 373 -701 694 -32 77 -75
244 -85 327 -7 64 -8 252 -2 285 3 14 7 41 10 60 2 19 14 72 25 118 12 46 19
88 15 95 -4 7 -4 9 1 5 9 -8 49 71 41 80 -3 2 2 11 10 19 8 9 13 22 10 30 -3
8 -2 12 2 9 5 -3 21 18 36 47 33 63 47 87 64 105 6 7 12 16 12 20 0 7 21 32
76 95 14 15 22 33 18 39 -4 6 -3 8 4 4 6 -3 28 11 49 31 55 55 123 111 162
134 28 17 32 23 20 31 -11 8 -10 9 4 4 10 -3 54 15 109 44 50 28 114 57 141
65 27 8 56 20 63 26 8 6 14 9 14 6 0 -3 24 1 53 9 28 7 68 16 87 19 20 3 47 8
60 11 14 3 64 6 112 7 47 1 90 5 94 10 11 10 16 9 9 -3z m1259 -366 c3 -8 2
-12 -4 -9 -6 3 -10 10 -10 16 0 14 7 11 14 -7z m566 -68 c0 -3 -4 -8 -10 -11
-5 -3 -10 -1 -10 4 0 6 5 11 10 11 6 0 10 -2 10 -4z"/>
<path d="M2019 1621 c-52 -10 -138 -55 -180 -93 -136 -122 -177 -320 -101
-483 52 -109 152 -193 272 -225 34 -9 251 -12 860 -11 1130 1 2091 6 2113 12
10 3 23 12 28 20 5 8 9 9 9 3 0 -8 12 -6 35 4 19 9 35 20 35 24 0 4 5 8 11 8
6 0 27 13 46 30 18 16 31 30 28 30 -3 0 8 14 26 31 18 18 28 36 25 45 -3 8 -2
13 3 10 8 -6 37 54 48 99 9 38 10 140 1 180 -17 76 -67 162 -124 215 -31 27
-62 50 -69 50 -7 0 -15 5 -17 11 -2 6 -15 12 -30 12 -14 1 -24 5 -22 9 6 9
-53 21 -65 14 -5 -4 -12 -2 -16 4 -7 11 -2857 12 -2916 1z m2876 -221 c3 -6
-1 -7 -9 -4 -18 7 -21 14 -7 14 6 0 13 -4 16 -10z m-732 -75 c-3 -9 -8 -14
-10 -11 -3 3 -2 9 2 15 9 16 15 13 8 -4z m964 -252 c0 -9 -4 -10 -14 -2 -16
14 -16 16 0 16 8 0 14 -6 14 -14z"/>
</g>
</svg>
