<svg width="18" height="14" viewBox="0 0 18 14" fill="none" xmlns="http://www.w3.org/2000/svg">
<path d="M12.7837 1.51351H11.8377V0.567568C11.8377 0.417039 11.7779 0.272676 11.6715 0.166237C11.565 0.0597971 11.4207 0 11.2701 0C11.1196 0 10.9753 0.0597971 10.8688 0.166237C10.7624 0.272676 10.7026 0.417039 10.7026 0.567568V1.51351H7.29717V0.567568C7.29717 0.417039 7.23737 0.272676 7.13093 0.166237C7.0245 0.0597971 6.88013 0 6.7296 0C6.57908 0 6.43471 0.0597971 6.32827 0.166237C6.22183 0.272676 6.16204 0.417039 6.16204 0.567568V1.51351H5.21609C4.66415 1.51351 4.13482 1.73277 3.74454 2.12305C3.35427 2.51333 3.13501 3.04266 3.13501 3.59459V11.9189C3.13501 12.4709 3.35427 13.0002 3.74454 13.3905C4.13482 13.7807 4.66415 14 5.21609 14H12.7837C13.3356 14 13.8649 13.7807 14.2552 13.3905C14.6455 13.0002 14.8647 12.4709 14.8647 11.9189V3.59459C14.8647 3.04266 14.6455 2.51333 14.2552 2.12305C13.8649 1.73277 13.3356 1.51351 12.7837 1.51351ZM5.21609 2.64865H6.16204V3.59459C6.16204 3.74512 6.22183 3.88949 6.32827 3.99593C6.43471 4.10237 6.57908 4.16216 6.7296 4.16216C6.88013 4.16216 7.0245 4.10237 7.13093 3.99593C7.23737 3.88949 7.29717 3.74512 7.29717 3.59459V2.64865H10.7026V3.59459C10.7026 3.74512 10.7624 3.88949 10.8688 3.99593C10.9753 4.10237 11.1196 4.16216 11.2701 4.16216C11.4207 4.16216 11.565 4.10237 11.6715 3.99593C11.7779 3.88949 11.8377 3.74512 11.8377 3.59459V2.64865H12.7837C13.0345 2.64865 13.2751 2.74831 13.4525 2.92571C13.6299 3.10311 13.7296 3.34371 13.7296 3.59459V5.67568H4.27014V3.59459C4.27014 3.34371 4.36981 3.10311 4.54721 2.92571C4.72461 2.74831 4.96521 2.64865 5.21609 2.64865ZM12.7837 12.8649H5.21609C4.96521 12.8649 4.72461 12.7652 4.54721 12.5878C4.36981 12.4104 4.27014 12.1698 4.27014 11.9189V6.81081H13.7296V11.9189C13.7296 12.1698 13.6299 12.4104 13.4525 12.5878C13.2751 12.7652 13.0345 12.8649 12.7837 12.8649Z" fill="#757575"/>
</svg>
