<svg width="19" height="15" viewBox="0 0 19 15" fill="none" xmlns="http://www.w3.org/2000/svg">
<g clip-path="url(#clip0_163_962)">
<path fill-rule="evenodd" clip-rule="evenodd" d="M8.79059 14.4019C8.88065 14.4667 8.98906 14.5011 9.10002 14.5C9.21099 14.5011 9.3194 14.4667 9.40946 14.4019C9.66606 14.2585 14.9491 10.6887 14.9491 6.34905C14.9491 4.79778 14.3328 3.31005 13.2359 2.21315C12.139 1.11624 10.6513 0.5 9.10002 0.5C7.54876 0.5 6.06103 1.11624 4.96412 2.21315C3.86721 3.31005 3.25098 4.79778 3.25098 6.34905C3.25098 10.6887 8.56417 14.2585 8.79059 14.4019ZM5.77352 3.03361C6.65791 2.15629 7.85431 1.6658 9.10002 1.66981C10.3457 1.6658 11.5421 2.15629 12.4265 3.03361C13.3109 3.91092 13.811 5.10334 13.817 6.34905C13.817 9.5264 10.2019 12.4321 9.10002 13.2396C7.99814 12.4321 4.38305 9.5264 4.38305 6.34905C4.38904 5.10334 4.88913 3.91092 5.77352 3.03361ZM7.94694 7.73512C8.28825 7.96317 8.68952 8.0849 9.10001 8.0849C9.65045 8.0849 10.1784 7.86623 10.5676 7.47701C10.9568 7.08778 11.1755 6.55988 11.1755 6.00943C11.1755 5.59894 11.0537 5.19767 10.8257 4.85636C10.5976 4.51505 10.2735 4.24903 9.89425 4.09195C9.51501 3.93486 9.0977 3.89376 8.6951 3.97384C8.2925 4.05392 7.92269 4.25159 7.63243 4.54185C7.34217 4.83211 7.1445 5.20192 7.06442 5.60453C6.98433 6.00713 7.02544 6.42443 7.18252 6.80368C7.33961 7.18292 7.60563 7.50706 7.94694 7.73512ZM8.57588 5.22502C8.73102 5.12136 8.91342 5.06603 9.10001 5.06603C9.35021 5.06603 9.59017 5.16543 9.76709 5.34235C9.94401 5.51927 10.0434 5.75922 10.0434 6.00943C10.0434 6.19601 9.98807 6.37841 9.88441 6.53355C9.78075 6.68869 9.63341 6.80961 9.46103 6.88101C9.28864 6.95241 9.09896 6.9711 8.91596 6.9347C8.73296 6.89829 8.56486 6.80845 8.43292 6.67651C8.30099 6.54457 8.21114 6.37648 8.17474 6.19348C8.13834 6.01048 8.15702 5.82079 8.22842 5.64841C8.29983 5.47602 8.42074 5.32869 8.57588 5.22502Z" fill="#757575"/>
</g>
<defs>
<clipPath id="clip0_163_962">
<rect width="18" height="14" fill="white" transform="translate(0.100098 0.5)"/>
</clipPath>
</defs>
</svg>
