<svg width="12" height="11" viewBox="0 0 12 11" fill="none" xmlns="http://www.w3.org/2000/svg">
<path d="M1.0572 10.7193C0.997969 10.7199 0.939204 10.7088 0.884283 10.6867C0.829362 10.6645 0.779369 10.6318 0.73718 10.5903C0.688811 10.5426 0.651593 10.4848 0.628188 10.4211C0.604783 10.3574 0.595768 10.2893 0.601789 10.2217L0.792568 7.86261C0.800749 7.75306 0.848926 7.65031 0.927959 7.57387L7.73446 0.779286C8.11372 0.42476 8.61829 0.234772 9.13761 0.250955C9.65356 0.254952 10.1486 0.454832 10.5223 0.810003C10.8807 1.17738 11.0868 1.66636 11.0994 2.17901C11.1119 2.69166 10.93 3.19011 10.59 3.57453L3.77734 10.3998C3.70109 10.4757 3.60125 10.5233 3.49425 10.535L1.10028 10.75L1.0572 10.7193ZM1.67261 8.1022L1.54338 9.78549L3.22962 9.6319L9.93765 2.92333C10.0684 2.76881 10.152 2.58006 10.1785 2.3795C10.205 2.17894 10.1733 1.97501 10.0871 1.79193C10.0009 1.60885 9.86388 1.45431 9.6923 1.34668C9.52072 1.23905 9.32179 1.18285 9.11915 1.18475C8.98597 1.17631 8.85244 1.19481 8.7266 1.23915C8.60075 1.28349 8.48518 1.35275 8.38681 1.44277L1.67261 8.1022Z" fill="white"/>
</svg>
