<svg width="12" height="9" viewBox="0 0 12 9" fill="none" xmlns="http://www.w3.org/2000/svg">
<path d="M8.97612 1.51869H7.84038V1.09278C7.84038 0.54762 7.39175 0.098999 6.84659 0.098999H1.59376C1.0486 0.098999 0.599976 0.54762 0.599976 1.09278V6.20365C0.599976 6.74881 1.0486 7.19743 1.59376 7.19743H1.75276C1.82658 8.14578 2.61593 8.90105 3.58132 8.90105C4.5467 8.90105 5.33605 8.14578 5.40987 7.19743H6.29008C6.3639 8.14578 7.15325 8.90105 8.11863 8.90105C9.08402 8.90105 9.87337 8.14578 9.94719 7.19743H10.1062C10.6514 7.19743 11.1 6.74881 11.1 6.20365V3.64821C11.1 2.47271 10.1459 1.51869 8.97045 1.51869H8.97612ZM1.45179 6.20365V1.09278C1.45179 1.01328 1.51425 0.950811 1.59376 0.950811H6.84659C6.9261 0.950811 6.98856 1.01328 6.98856 1.09278V5.6017C6.98856 5.6017 6.96017 5.63578 6.94313 5.64713C6.85795 5.72096 6.77845 5.80046 6.70463 5.88564C6.68191 5.91403 6.6592 5.93675 6.64216 5.96514C6.55698 6.0844 6.47748 6.20365 6.42637 6.33994H5.29062C5.29062 6.33994 5.29062 6.33994 5.29062 6.33426C5.25087 6.23772 5.19408 6.14118 5.13729 6.056C5.12026 6.03329 5.10322 6.01057 5.08618 5.98218C5.04075 5.91403 4.98965 5.85725 4.93286 5.79478C4.91014 5.77207 4.89311 5.74935 4.87039 5.72664C4.79657 5.65849 4.72274 5.59602 4.64324 5.53924C4.63188 5.53356 4.62621 5.5222 4.61485 5.51652C4.52967 5.45973 4.43881 5.4143 4.34795 5.36887C4.31387 5.35184 4.2798 5.34048 4.24573 5.32912C4.17191 5.30073 4.10376 5.27801 4.02994 5.26098C3.99587 5.2553 3.96179 5.24394 3.92772 5.23826C3.81982 5.21555 3.70625 5.20419 3.59267 5.20419C3.4791 5.20419 3.3712 5.21555 3.25763 5.23826C3.22356 5.24394 3.18948 5.2553 3.15541 5.26098C3.08159 5.27801 3.00776 5.30073 2.93962 5.32912C2.90555 5.34048 2.87147 5.35184 2.8374 5.36887C2.74654 5.40863 2.65568 5.45973 2.5705 5.51652C2.55914 5.5222 2.55346 5.52788 2.54211 5.53924C2.4626 5.59602 2.3831 5.65849 2.31496 5.72664C2.29224 5.74935 2.26953 5.77207 2.25249 5.79478C2.1957 5.85157 2.14459 5.91403 2.09916 5.98218C2.08213 6.00489 2.06509 6.02761 2.04806 6.056C1.99127 6.14686 1.94016 6.23772 1.89473 6.33426C1.89473 6.33426 1.89473 6.33426 1.89473 6.33994H1.61079C1.53129 6.33994 1.46882 6.27747 1.46882 6.19797L1.45179 6.20365ZM3.58132 8.04924C3.03616 8.04924 2.58754 7.60062 2.58754 7.05546C2.58754 6.98732 2.59322 6.91917 2.61025 6.85671C2.63297 6.75449 2.67272 6.65795 2.72383 6.57277C2.7295 6.55573 2.74086 6.54437 2.74654 6.52734C2.79765 6.44784 2.86012 6.37401 2.93394 6.31155C2.95098 6.30019 2.96233 6.28883 2.97937 6.27747C3.05319 6.22069 3.13837 6.16958 3.22923 6.1355C3.24059 6.1355 3.25763 6.12415 3.27466 6.12415C3.3712 6.09008 3.4791 6.06736 3.587 6.06736C3.69489 6.06736 3.79711 6.09008 3.89933 6.12415C3.91636 6.12415 3.92772 6.12983 3.94476 6.1355C4.03562 6.16958 4.1208 6.22069 4.19462 6.27747C4.21166 6.28883 4.22301 6.30019 4.24005 6.31155C4.31387 6.37401 4.37634 6.44784 4.42745 6.52734C4.43881 6.5387 4.44449 6.55573 4.45016 6.57277C4.50127 6.66363 4.54102 6.75449 4.56374 6.85671C4.5751 6.91917 4.58645 6.98732 4.58645 7.05546C4.58645 7.60062 4.13783 8.04924 3.59267 8.04924H3.58132ZM8.12431 8.04924C7.57915 8.04924 7.13053 7.60062 7.13053 7.05546C7.13053 6.98732 7.13621 6.91917 7.15325 6.85671C7.17028 6.78856 7.18732 6.72042 7.21571 6.65795C7.21571 6.65795 7.21571 6.65227 7.21571 6.64659C7.24411 6.58981 7.2725 6.53302 7.31225 6.48191C7.31793 6.47055 7.32929 6.46487 7.33497 6.45352C7.36904 6.40808 7.40311 6.36833 7.44286 6.32858C7.45422 6.31722 7.46558 6.31155 7.47694 6.30019C7.51669 6.26612 7.56212 6.23204 7.60755 6.20365C7.6189 6.19797 7.63594 6.18661 7.65298 6.18093C7.70409 6.15254 7.76087 6.12983 7.81766 6.11279C7.84038 6.10711 7.86309 6.09575 7.89148 6.09008C7.96531 6.07304 8.04481 6.06168 8.12431 6.06168C8.23221 6.06168 8.33443 6.0844 8.43664 6.11847C8.45368 6.11847 8.46504 6.12415 8.48207 6.12983C8.57293 6.1639 8.65811 6.21501 8.73194 6.27179C8.74897 6.28315 8.76033 6.29451 8.77737 6.30587C8.85119 6.36833 8.91366 6.44216 8.96477 6.52166C8.97612 6.53302 8.9818 6.55005 8.98748 6.56709C9.03859 6.65795 9.07834 6.74881 9.10106 6.85103C9.11241 6.91349 9.12377 6.98164 9.12377 7.04978C9.12377 7.59494 8.67515 8.04356 8.12999 8.04356L8.12431 8.04924ZM7.84038 4.07412V2.3705H8.97612C9.68029 2.3705 10.2538 2.94405 10.2538 3.64821V4.07412H7.84038Z" fill="white"/>
</svg>
