<svg width="19" height="15" viewBox="0 0 19 15" fill="none" xmlns="http://www.w3.org/2000/svg">
  <g clip-path="url(#clip0_163_967)">
    <path d="M14.5223 2.75806H12.7158V2.08065C12.7158 1.21355 12.0023 0.5 11.1352 0.5H2.78035C1.91326 0.5 1.19971 1.21355 1.19971 2.08065V10.2097C1.19971 11.0768 1.91326 11.7903 2.78035 11.7903H3.03326C3.15068 13.2987 4.40616 14.5 5.94164 14.5C7.47713 14.5 8.73261 13.2987 8.85003 11.7903H10.25C10.3674 13.2987 11.6229 14.5 13.1584 14.5C14.6939 14.5 15.9494 13.2987 16.0668 11.7903H16.3197C17.1868 11.7903 17.9004 11.0768 17.9004 10.2097V6.14516C17.9004 4.27548 16.3829 2.75806 14.5133 2.75806H14.5223ZM2.55455 10.2097V2.08065C2.55455 1.95419 2.6539 1.85484 2.78035 1.85484H11.1352C11.2616 1.85484 11.361 1.95419 11.361 2.08065V9.25226C11.361 9.25226 11.3158 9.30645 11.2887 9.32452C11.1533 9.44194 11.0268 9.56839 10.9094 9.70387C10.8733 9.74903 10.8371 9.78516 10.81 9.83032C10.6745 10.02 10.5481 10.2097 10.4668 10.4265H8.66035C8.66035 10.4265 8.66035 10.4265 8.66035 10.4174C8.59713 10.2639 8.5068 10.1103 8.41648 9.97484C8.38938 9.93871 8.36229 9.90258 8.33519 9.85742C8.26293 9.74903 8.18164 9.65871 8.09132 9.55935C8.05519 9.52322 8.02809 9.4871 7.99197 9.45097C7.87455 9.34258 7.75713 9.24323 7.63067 9.1529C7.61261 9.14387 7.60358 9.12581 7.58551 9.11677C7.45003 9.02645 7.30551 8.95419 7.161 8.88194C7.1068 8.85484 7.05261 8.83677 6.99842 8.81871C6.881 8.77355 6.77261 8.73742 6.65519 8.71032C6.601 8.70129 6.5468 8.68323 6.49261 8.67419C6.321 8.63806 6.14035 8.62 5.95971 8.62C5.77906 8.62 5.60745 8.63806 5.4268 8.67419C5.37261 8.68323 5.31842 8.70129 5.26422 8.71032C5.1468 8.73742 5.02938 8.77355 4.921 8.81871C4.8668 8.83677 4.81261 8.85484 4.75842 8.88194C4.6139 8.94516 4.46938 9.02645 4.3339 9.11677C4.31584 9.12581 4.3068 9.13484 4.28874 9.1529C4.16229 9.24323 4.03584 9.34258 3.92745 9.45097C3.89132 9.4871 3.85519 9.52322 3.82809 9.55935C3.73777 9.64968 3.65648 9.74903 3.58422 9.85742C3.55713 9.89355 3.53003 9.92968 3.50293 9.97484C3.41261 10.1194 3.33132 10.2639 3.25906 10.4174C3.25906 10.4174 3.25906 10.4174 3.25906 10.4265H2.80745C2.681 10.4265 2.58164 10.3271 2.58164 10.2006L2.55455 10.2097ZM5.94164 13.1452C5.07455 13.1452 4.361 12.4316 4.361 11.5645C4.361 11.4561 4.37003 11.3477 4.39713 11.2484C4.43326 11.0858 4.49648 10.9323 4.57777 10.7968C4.5868 10.7697 4.60487 10.7516 4.6139 10.7245C4.69519 10.5981 4.79455 10.4806 4.91197 10.3813C4.93906 10.3632 4.95713 10.3452 4.98422 10.3271C5.10164 10.2368 5.23713 10.1555 5.38164 10.1013C5.39971 10.1013 5.4268 10.0832 5.4539 10.0832C5.60745 10.029 5.77906 9.9929 5.95068 9.9929C6.12229 9.9929 6.28487 10.029 6.44745 10.0832C6.47455 10.0832 6.49261 10.0923 6.51971 10.1013C6.66422 10.1555 6.79971 10.2368 6.91713 10.3271C6.94422 10.3452 6.96229 10.3632 6.98938 10.3813C7.1068 10.4806 7.20616 10.5981 7.28745 10.7245C7.30551 10.7426 7.31455 10.7697 7.32358 10.7968C7.40487 10.9413 7.46809 11.0858 7.50422 11.2484C7.52229 11.3477 7.54035 11.4561 7.54035 11.5645C7.54035 12.4316 6.8268 13.1452 5.95971 13.1452H5.94164ZM13.1674 13.1452C12.3004 13.1452 11.5868 12.4316 11.5868 11.5645C11.5868 11.4561 11.5958 11.3477 11.6229 11.2484C11.65 11.14 11.6771 11.0316 11.7223 10.9323C11.7223 10.9323 11.7223 10.9232 11.7223 10.9142C11.7674 10.8239 11.8126 10.7335 11.8758 10.6523C11.8849 10.6342 11.9029 10.6252 11.912 10.6071C11.9662 10.5348 12.0204 10.4716 12.0836 10.4084C12.1016 10.3903 12.1197 10.3813 12.1378 10.3632C12.201 10.309 12.2733 10.2548 12.3455 10.2097C12.3636 10.2006 12.3907 10.1826 12.4178 10.1735C12.4991 10.1284 12.5894 10.0923 12.6797 10.0652C12.7158 10.0561 12.752 10.0381 12.7971 10.029C12.9145 10.0019 13.041 9.98387 13.1674 9.98387C13.3391 9.98387 13.5016 10.02 13.6642 10.0742C13.6913 10.0742 13.7094 10.0832 13.7365 10.0923C13.881 10.1465 14.0165 10.2277 14.1339 10.3181C14.161 10.3361 14.1791 10.3542 14.2062 10.3723C14.3236 10.4716 14.4229 10.589 14.5042 10.7155C14.5223 10.7335 14.5313 10.7606 14.5404 10.7877C14.6216 10.9323 14.6849 11.0768 14.721 11.2394C14.7391 11.3387 14.7571 11.4471 14.7571 11.5555C14.7571 12.4226 14.0436 13.1361 13.1765 13.1361L13.1674 13.1452ZM12.7158 6.82258V4.1129H14.5223C15.6423 4.1129 16.5545 5.02516 16.5545 6.14516V6.82258H12.7158Z" fill="#757575"/>
  </g>
  <defs>
    <clipPath id="clip0_163_967">
      <rect width="18" height="14" fill="white" transform="translate(0.550049 0.5)"/>
    </clipPath>
  </defs>
</svg>
