<svg width="12" height="11" viewBox="0 0 12 11" fill="none" xmlns="http://www.w3.org/2000/svg">
<path d="M11.1008 8.2115C11.1008 8.2115 11.1008 8.1695 11.1008 8.14549V2.85265C11.1006 2.78379 11.0841 2.71594 11.0528 2.65462C11.0086 2.55932 10.932 2.48278 10.8367 2.43859L6.03598 0.290245C5.97755 0.263722 5.91413 0.25 5.84996 0.25C5.78579 0.25 5.72236 0.263722 5.66393 0.290245L0.863163 2.43859C0.785952 2.47744 0.720664 2.53642 0.67419 2.6093C0.627716 2.68218 0.60178 2.76626 0.599121 2.85265V8.14549C0.603608 8.23144 0.630289 8.31476 0.676564 8.38733C0.722839 8.4599 0.787128 8.51924 0.863163 8.55956L5.66393 10.7079C5.72203 10.7356 5.78558 10.75 5.84996 10.75C5.91433 10.75 5.97789 10.7356 6.03598 10.7079L10.8367 8.55956C10.9061 8.52782 10.9664 8.47943 11.0125 8.41871C11.0586 8.35798 11.0889 8.2868 11.1008 8.2115ZM1.49926 3.54276L5.39988 5.29504V9.60372L1.49926 7.85745V3.54276ZM6.30003 5.29504L10.2006 3.54276V7.85745L6.30003 9.60372V5.29504ZM5.86196 1.19039L9.56455 2.85265L5.86196 4.50892L2.15937 2.85265L5.86196 1.19039Z" fill="white"/>
</svg>
