<svg width="19" height="14" viewBox="0 0 19 14" fill="none" xmlns="http://www.w3.org/2000/svg">
<path d="M12.8838 1.51351H11.9378V0.567568C11.9378 0.417039 11.878 0.272676 11.7716 0.166237C11.6651 0.0597971 11.5208 0 11.3702 0C11.2197 0 11.0754 0.0597971 10.9689 0.166237C10.8625 0.272676 10.8027 0.417039 10.8027 0.567568V1.51351H7.39727V0.567568C7.39727 0.417039 7.33747 0.272676 7.23103 0.166237C7.12459 0.0597971 6.98023 0 6.8297 0C6.67917 0 6.53481 0.0597971 6.42837 0.166237C6.32193 0.272676 6.26213 0.417039 6.26213 0.567568V1.51351H5.31619C4.76425 1.51351 4.23492 1.73277 3.84464 2.12305C3.45436 2.51333 3.23511 3.04266 3.23511 3.59459V11.9189C3.23511 12.4709 3.45436 13.0002 3.84464 13.3905C4.23492 13.7807 4.76425 14 5.31619 14H12.8838C13.4357 14 13.965 13.7807 14.3553 13.3905C14.7456 13.0002 14.9648 12.4709 14.9648 11.9189V3.59459C14.9648 3.04266 14.7456 2.51333 14.3553 2.12305C13.965 1.73277 13.4357 1.51351 12.8838 1.51351ZM5.31619 2.64865H6.26213V3.59459C6.26213 3.74512 6.32193 3.88949 6.42837 3.99593C6.53481 4.10237 6.67917 4.16216 6.8297 4.16216C6.98023 4.16216 7.12459 4.10237 7.23103 3.99593C7.33747 3.88949 7.39727 3.74512 7.39727 3.59459V2.64865H10.8027V3.59459C10.8027 3.74512 10.8625 3.88949 10.9689 3.99593C11.0754 4.10237 11.2197 4.16216 11.3702 4.16216C11.5208 4.16216 11.6651 4.10237 11.7716 3.99593C11.878 3.88949 11.9378 3.74512 11.9378 3.59459V2.64865H12.8838C13.1346 2.64865 13.3752 2.74831 13.5526 2.92571C13.73 3.10311 13.8297 3.34371 13.8297 3.59459V5.67568H4.37024V3.59459C4.37024 3.34371 4.4699 3.10311 4.6473 2.92571C4.8247 2.74831 5.06531 2.64865 5.31619 2.64865ZM12.8838 12.8649H5.31619C5.06531 12.8649 4.8247 12.7652 4.6473 12.5878C4.4699 12.4104 4.37024 12.1698 4.37024 11.9189V6.81081H13.8297V11.9189C13.8297 12.1698 13.73 12.4104 13.5526 12.5878C13.3752 12.7652 13.1346 12.8649 12.8838 12.8649Z" fill="#757575"/>
</svg>
