<svg width="19" height="15" viewBox="0 0 19 15" fill="none" xmlns="http://www.w3.org/2000/svg">
<g clip-path="url(#clip0_163_946)">
<path d="M13.4336 2.01351H12.4876V1.06757C12.4876 0.917039 12.4278 0.772676 12.3214 0.666237C12.2149 0.559797 12.0706 0.5 11.92 0.5C11.7695 0.5 11.6252 0.559797 11.5187 0.666237C11.4123 0.772676 11.3525 0.917039 11.3525 1.06757V2.01351H7.94707V1.06757C7.94707 0.917039 7.88728 0.772676 7.78084 0.666237C7.6744 0.559797 7.53003 0.5 7.37951 0.5C7.22898 0.5 7.08462 0.559797 6.97818 0.666237C6.87174 0.772676 6.81194 0.917039 6.81194 1.06757V2.01351H5.86599C5.31406 2.01351 4.78472 2.23277 4.39445 2.62305C4.00417 3.01333 3.78491 3.54266 3.78491 4.09459V12.4189C3.78491 12.9709 4.00417 13.5002 4.39445 13.8905C4.78472 14.2807 5.31406 14.5 5.86599 14.5H13.4336C13.9855 14.5 14.5148 14.2807 14.9051 13.8905C15.2954 13.5002 15.5146 12.9709 15.5146 12.4189V4.09459C15.5146 3.54266 15.2954 3.01333 14.9051 2.62305C14.5148 2.23277 13.9855 2.01351 13.4336 2.01351ZM5.86599 3.14865H6.81194V4.09459C6.81194 4.24512 6.87174 4.38949 6.97818 4.49593C7.08462 4.60237 7.22898 4.66216 7.37951 4.66216C7.53003 4.66216 7.6744 4.60237 7.78084 4.49593C7.88728 4.38949 7.94707 4.24512 7.94707 4.09459V3.14865H11.3525V4.09459C11.3525 4.24512 11.4123 4.38949 11.5187 4.49593C11.6252 4.60237 11.7695 4.66216 11.92 4.66216C12.0706 4.66216 12.2149 4.60237 12.3214 4.49593C12.4278 4.38949 12.4876 4.24512 12.4876 4.09459V3.14865H13.4336C13.6844 3.14865 13.925 3.24831 14.1024 3.42571C14.2798 3.60311 14.3795 3.84371 14.3795 4.09459V6.17568H4.92005V4.09459C4.92005 3.84371 5.01971 3.60311 5.19711 3.42571C5.37451 3.24831 5.61511 3.14865 5.86599 3.14865ZM13.4336 13.3649H5.86599C5.61511 13.3649 5.37451 13.2652 5.19711 13.0878C5.01971 12.9104 4.92005 12.6698 4.92005 12.4189V7.31081H14.3795V12.4189C14.3795 12.6698 14.2798 12.9104 14.1024 13.0878C13.925 13.2652 13.6844 13.3649 13.4336 13.3649Z" fill="#757575"/>
</g>
<defs>
<clipPath id="clip0_163_946">
<rect width="18" height="14" fill="white" transform="translate(0.649902 0.5)"/>
</clipPath>
</defs>
</svg>
