<svg width="14" height="15" viewBox="0 0 14 15" fill="none" xmlns="http://www.w3.org/2000/svg">
<path fill-rule="evenodd" clip-rule="evenodd" d="M0.0535499 7.7521C0.208567 8.09159 2.40413 12.9 7 12.9C11.5959 12.9 13.7914 8.09158 13.9465 7.7521C13.9487 7.74706 13.9506 7.74301 13.952 7.73998C13.9837 7.66393 14 7.58236 14 7.49998C14 7.41759 13.9837 7.33602 13.952 7.25998C13.9506 7.25694 13.9487 7.25289 13.9465 7.24785C13.7914 6.90837 11.5959 2.09998 7 2.09998C2.40413 2.09998 0.208567 6.90836 0.0535499 7.24785C0.0512519 7.25289 0.0494023 7.25694 0.048 7.25998C0.0163137 7.33602 0 7.41759 0 7.49998C0 7.58236 0.0163137 7.66393 0.048 7.73998C0.0494023 7.74301 0.0512519 7.74707 0.0535499 7.7521ZM7 11.7C3.664 11.7 1.736 8.41998 1.264 7.49998C1.736 6.57998 3.664 3.29998 7 3.29998C10.336 3.29998 12.264 6.57998 12.736 7.49998C12.264 8.41998 10.336 11.7 7 11.7ZM5.55551 9.66179C5.98308 9.94748 6.48576 10.1 7 10.1C7.68891 10.0979 8.349 9.82325 8.83614 9.33611C9.32328 8.84897 9.59789 8.18888 9.59999 7.49996C9.59999 6.98573 9.44751 6.48305 9.16182 6.05548C8.87612 5.62791 8.47006 5.29467 7.99497 5.09788C7.51988 4.90109 6.99711 4.8496 6.49276 4.94992C5.98841 5.05024 5.52513 5.29787 5.16152 5.66149C4.7979 6.0251 4.55027 6.48838 4.44995 6.99273C4.34963 7.49708 4.40112 8.01985 4.59791 8.49494C4.7947 8.97003 5.12794 9.37609 5.55551 9.66179ZM6.2222 6.33591C6.45243 6.18207 6.7231 6.09996 7 6.09996C7.37065 6.10206 7.72553 6.25024 7.98762 6.51234C8.24972 6.77443 8.39789 7.12931 8.39999 7.49996C8.39999 7.77686 8.31789 8.04753 8.16405 8.27776C8.01022 8.50799 7.79157 8.68743 7.53575 8.7934C7.27994 8.89936 6.99844 8.92708 6.72687 8.87306C6.4553 8.81904 6.20584 8.68571 6.01005 8.48991C5.81425 8.29412 5.68091 8.04466 5.6269 7.77309C5.57288 7.50152 5.6006 7.22002 5.70656 6.96421C5.81253 6.70839 5.99197 6.48974 6.2222 6.33591Z" fill="#3B82F6"/>
</svg>
