<svg width="12" height="11" viewBox="0 0 12 11" fill="none" xmlns="http://www.w3.org/2000/svg">
<g clip-path="url(#clip0_190_627)">
<path d="M9.60015 9.85H9.20415C8.97615 9.034 8.27415 7.006 6.56415 5.5C8.27415 3.994 8.97615 1.966 9.20415 1.15H9.60015C9.84615 1.15 10.0501 0.946 10.0501 0.7C10.0501 0.454 9.84615 0.25 9.60015 0.25H2.10015C1.85415 0.25 1.65015 0.454 1.65015 0.7C1.65015 0.946 1.85415 1.15 2.10015 1.15H2.49615C2.72415 1.966 3.42615 3.994 5.13615 5.5C3.42615 7.006 2.72415 9.034 2.49615 9.85H2.10015C1.85415 9.85 1.65015 10.054 1.65015 10.3C1.65015 10.546 1.85415 10.75 2.10015 10.75H9.60015C9.84615 10.75 10.0501 10.546 10.0501 10.3C10.0501 10.054 9.84615 9.85 9.60015 9.85ZM3.43815 1.15H8.25615C7.98615 2.002 7.29615 3.7 5.84415 4.918C4.39215 3.694 3.70215 2.002 3.43215 1.15H3.43815ZM5.85015 6.082C7.30215 7.306 7.99215 8.998 8.26215 9.85H3.43815C3.70815 8.998 4.39815 7.3 5.85015 6.082Z" fill="#424242"/>
</g>
<defs>
<clipPath id="clip0_190_627">
<rect width="10.5" height="10.5" fill="white" transform="translate(0.600098 0.25)"/>
</clipPath>
</defs>
</svg>
