<svg width="19" height="15" viewBox="0 0 19 15" fill="none" xmlns="http://www.w3.org/2000/svg">
<g clip-path="url(#clip0_163_950)">
<path fill-rule="evenodd" clip-rule="evenodd" d="M9.34039 14.4019C9.43045 14.4667 9.53886 14.5011 9.64983 14.5C9.76079 14.5011 9.8692 14.4667 9.95926 14.4019C10.2159 14.2585 15.4989 10.6887 15.4989 6.34905C15.4989 4.79778 14.8826 3.31005 13.7857 2.21315C12.6888 1.11624 11.2011 0.5 9.64983 0.5C8.09856 0.5 6.61084 1.11624 5.51393 2.21315C4.41702 3.31005 3.80078 4.79778 3.80078 6.34905C3.80078 10.6887 9.11398 14.2585 9.34039 14.4019ZM6.32333 3.03361C7.20772 2.15629 8.40411 1.6658 9.64983 1.66981C10.8955 1.6658 12.0919 2.15629 12.9763 3.03361C13.8607 3.91092 14.3608 5.10334 14.3668 6.34905C14.3668 9.5264 10.7517 12.4321 9.64983 13.2396C8.54794 12.4321 4.93285 9.5264 4.93285 6.34905C4.93885 5.10334 5.43894 3.91092 6.32333 3.03361ZM8.49674 7.73512C8.83805 7.96317 9.23932 8.0849 9.64981 8.0849C10.2003 8.0849 10.7282 7.86623 11.1174 7.47701C11.5066 7.08778 11.7253 6.55988 11.7253 6.00943C11.7253 5.59894 11.6036 5.19767 11.3755 4.85636C11.1474 4.51505 10.8233 4.24903 10.4441 4.09195C10.0648 3.93486 9.64751 3.89376 9.24491 3.97384C8.84231 4.05392 8.47249 4.25159 8.18223 4.54185C7.89197 4.83211 7.6943 5.20192 7.61422 5.60453C7.53414 6.00713 7.57524 6.42443 7.73233 6.80368C7.88941 7.18292 8.15543 7.50706 8.49674 7.73512ZM9.12569 5.22502C9.28083 5.12136 9.46322 5.06603 9.64981 5.06603C9.90001 5.06603 10.14 5.16543 10.3169 5.34235C10.4938 5.51927 10.5932 5.75922 10.5932 6.00943C10.5932 6.19601 10.5379 6.37841 10.4342 6.53355C10.3306 6.68869 10.1832 6.80961 10.0108 6.88101C9.83845 6.95241 9.64876 6.9711 9.46576 6.9347C9.28276 6.89829 9.11467 6.80845 8.98273 6.67651C8.85079 6.54457 8.76094 6.37648 8.72454 6.19348C8.68814 6.01048 8.70682 5.82079 8.77823 5.64841C8.84963 5.47602 8.97055 5.32869 9.12569 5.22502Z" fill="#757575"/>
</g>
<defs>
<clipPath id="clip0_163_950">
<rect width="18" height="14" fill="white" transform="translate(0.649902 0.5)"/>
</clipPath>
</defs>
</svg>
