<svg width="19" height="15" viewBox="0 0 19 15" fill="none" xmlns="http://www.w3.org/2000/svg">
<path d="M16.55 10.2V11.6H8.15005C8.15005 12.157 7.9288 12.6911 7.53497 13.0849C7.14115 13.4788 6.607 13.7 6.05005 13.7C5.49309 13.7 4.95895 13.4788 4.56512 13.0849C4.1713 12.6911 3.95005 12.157 3.95005 11.6H2.55005V3.9C2.55005 3.5287 2.69755 3.1726 2.9601 2.91005C3.22265 2.6475 3.57875 2.5 3.95005 2.5H13.05C13.4214 2.5 13.7774 2.6475 14.04 2.91005C14.3025 3.1726 14.45 3.5287 14.45 3.9V10.2H16.55ZM6.05005 10.9C5.8644 10.9 5.68635 10.9737 5.55507 11.105C5.4238 11.2363 5.35005 11.4143 5.35005 11.6C5.35005 11.7857 5.4238 11.9637 5.55507 12.095C5.68635 12.2263 5.8644 12.3 6.05005 12.3C6.2357 12.3 6.41375 12.2263 6.54502 12.095C6.6763 11.9637 6.75005 11.7857 6.75005 11.6C6.75005 11.4143 6.6763 11.2363 6.54502 11.105C6.41375 10.9737 6.2357 10.9 6.05005 10.9Z" fill="#757575"/>
</svg>
