<svg width="16" height="17" viewBox="0 0 16 17" fill="none" xmlns="http://www.w3.org/2000/svg">
<g id="x">
<path id="Vector" fill-rule="evenodd" clip-rule="evenodd" d="M3.43345 3.93466C3.58347 3.78468 3.78692 3.70043 3.99905 3.70043C4.21118 3.70043 4.41463 3.78468 4.56465 3.93466L7.99905 7.36906L11.4334 3.93466C11.5072 3.85825 11.5955 3.79731 11.6931 3.75538C11.7907 3.71345 11.8957 3.69138 12.0019 3.69046C12.1082 3.68954 12.2135 3.70978 12.3118 3.75C12.4101 3.79023 12.4995 3.84963 12.5746 3.92474C12.6497 3.99986 12.7091 4.08918 12.7493 4.1875C12.7895 4.28581 12.8098 4.39116 12.8088 4.49738C12.8079 4.6036 12.7859 4.70858 12.7439 4.80618C12.702 4.90379 12.6411 4.99206 12.5646 5.06586L9.13025 8.50026L12.5646 11.9347C12.7104 12.0855 12.791 12.2876 12.7892 12.4974C12.7874 12.7071 12.7032 12.9078 12.5549 13.0561C12.4066 13.2044 12.2059 13.2886 11.9962 13.2904C11.7864 13.2922 11.5843 13.2116 11.4334 13.0659L7.99905 9.63146L4.56465 13.0659C4.41377 13.2116 4.21168 13.2922 4.00193 13.2904C3.79217 13.2886 3.59152 13.2044 3.44319 13.0561C3.29487 12.9078 3.21073 12.7071 3.20891 12.4974C3.20709 12.2876 3.28772 12.0855 3.43345 11.9347L6.86785 8.50026L3.43345 5.06586C3.28347 4.91584 3.19922 4.71239 3.19922 4.50026C3.19922 4.28813 3.28347 4.08468 3.43345 3.93466Z" fill="#111928"/>
</g>
</svg>
