<svg width="16" height="17" viewBox="0 0 16 17" fill="none" xmlns="http://www.w3.org/2000/svg">
<g id="archive">
<path id="Vector" d="M3.33333 5.83366H12.6667M3.33333 5.83366C2.97971 5.83366 2.64057 5.69318 2.39052 5.44313C2.14048 5.19309 2 4.85395 2 4.50033C2 4.1467 2.14048 3.80756 2.39052 3.55752C2.64057 3.30747 2.97971 3.16699 3.33333 3.16699H12.6667C13.0203 3.16699 13.3594 3.30747 13.6095 3.55752C13.8595 3.80756 14 4.1467 14 4.50033C14 4.85395 13.8595 5.19309 13.6095 5.44313C13.3594 5.69318 13.0203 5.83366 12.6667 5.83366M3.33333 5.83366V12.5003C3.33333 12.8539 3.47381 13.1931 3.72386 13.4431C3.97391 13.6932 4.31304 13.8337 4.66667 13.8337H11.3333C11.687 13.8337 12.0261 13.6932 12.2761 13.4431C12.5262 13.1931 12.6667 12.8539 12.6667 12.5003V5.83366M6.66667 8.50033H9.33333" stroke="#111928" stroke-width="2" stroke-linecap="round" stroke-linejoin="round"/>
</g>
</svg>
