<svg width="14" height="14" viewBox="0 0 14 14" fill="none" xmlns="http://www.w3.org/2000/svg">
<g id="check-circle">
<path id="Vector" fill-rule="evenodd" clip-rule="evenodd" d="M6.99844 12.6004C8.48365 12.6004 9.90803 12.0104 10.9582 10.9602C12.0084 9.90999 12.5984 8.4856 12.5984 7.00039C12.5984 5.51518 12.0084 4.0908 10.9582 3.04059C9.90803 1.99039 8.48365 1.40039 6.99844 1.40039C5.51323 1.40039 4.08884 1.99039 3.03864 3.04059C1.98844 4.0908 1.39844 5.51518 1.39844 7.00039C1.39844 8.4856 1.98844 9.90999 3.03864 10.9602C4.08884 12.0104 5.51323 12.6004 6.99844 12.6004ZM9.59334 6.09529C9.72085 5.96327 9.7914 5.78645 9.78981 5.60291C9.78821 5.41937 9.7146 5.2438 9.58481 5.11402C9.45503 4.98423 9.27946 4.91061 9.09592 4.90902C8.91238 4.90742 8.73556 4.97798 8.60354 5.10549L6.29844 7.41059L5.39334 6.50549C5.26132 6.37798 5.08449 6.30742 4.90096 6.30902C4.71742 6.31061 4.54185 6.38423 4.41206 6.51402C4.28228 6.6438 4.20866 6.81937 4.20707 7.00291C4.20547 7.18645 4.27603 7.36327 4.40354 7.49529L5.80354 8.89529C5.93481 9.02652 6.11282 9.10024 6.29844 9.10024C6.48405 9.10024 6.66207 9.02652 6.79334 8.89529L9.59334 6.09529Z" fill="#03543F"/>
</g>
</svg>
