<svg width="14" height="14" viewBox="0 0 14 14" fill="none" xmlns="http://www.w3.org/2000/svg">
<g id="exclamation-circle">
<path id="Vector" fill-rule="evenodd" clip-rule="evenodd" d="M12.5984 7.00039C12.5984 8.4856 12.0084 9.90999 10.9582 10.9602C9.90803 12.0104 8.48365 12.6004 6.99844 12.6004C5.51323 12.6004 4.08884 12.0104 3.03864 10.9602C1.98844 9.90999 1.39844 8.4856 1.39844 7.00039C1.39844 5.51518 1.98844 4.0908 3.03864 3.04059C4.08884 1.99039 5.51323 1.40039 6.99844 1.40039C8.48365 1.40039 9.90803 1.99039 10.9582 3.04059C12.0084 4.0908 12.5984 5.51518 12.5984 7.00039ZM7.69844 9.80039C7.69844 9.98604 7.62469 10.1641 7.49341 10.2954C7.36214 10.4266 7.18409 10.5004 6.99844 10.5004C6.81279 10.5004 6.63474 10.4266 6.50346 10.2954C6.37219 10.1641 6.29844 9.98604 6.29844 9.80039C6.29844 9.61474 6.37219 9.43669 6.50346 9.30542C6.63474 9.17414 6.81279 9.10039 6.99844 9.10039C7.18409 9.10039 7.36214 9.17414 7.49341 9.30542C7.62469 9.43669 7.69844 9.61474 7.69844 9.80039ZM6.99844 3.50039C6.81279 3.50039 6.63474 3.57414 6.50346 3.70542C6.37219 3.83669 6.29844 4.01474 6.29844 4.20039V7.00039C6.29844 7.18604 6.37219 7.36409 6.50346 7.49537C6.63474 7.62664 6.81279 7.70039 6.99844 7.70039C7.18409 7.70039 7.36214 7.62664 7.49341 7.49537C7.62469 7.36409 7.69844 7.18604 7.69844 7.00039V4.20039C7.69844 4.01474 7.62469 3.83669 7.49341 3.70542C7.36214 3.57414 7.18409 3.50039 6.99844 3.50039Z" fill="#C81E1E"/>
</g>
</svg>
