<svg width="20" height="20" viewBox="0 0 20 20" fill="none" xmlns="http://www.w3.org/2000/svg">
<g id="link">
<path id="Vector" d="M12.7659 10.7673L12.7659 10.7672L15.763 7.77011C16.0003 7.54015 16.1896 7.26543 16.32 6.96183C16.451 6.65682 16.52 6.32877 16.5229 5.99682C16.5257 5.66487 16.4625 5.33567 16.3368 5.02843C16.2111 4.72119 16.0254 4.44206 15.7907 4.20733C15.556 3.9726 15.2769 3.78697 14.9696 3.66127C14.6624 3.53556 14.3332 3.47231 14.0012 3.47519C13.6693 3.47808 13.3412 3.54704 13.0362 3.67807C12.7326 3.80848 12.4579 3.99779 12.2279 4.23501L10.7308 5.73212L10.7308 5.73207L10.7247 5.73832C10.6786 5.78607 10.6234 5.82417 10.5624 5.85037C10.5014 5.87657 10.4358 5.89037 10.3694 5.89095C10.303 5.89152 10.2372 5.87887 10.1758 5.85373C10.1143 5.82859 10.0585 5.79146 10.0115 5.74452C9.96458 5.69757 9.92746 5.64174 9.90232 5.5803C9.87718 5.51885 9.86453 5.45301 9.8651 5.38662C9.86568 5.32023 9.87947 5.25462 9.90568 5.19362C9.93188 5.13261 9.96997 5.07744 10.0177 5.03132L10.0178 5.03137L10.0239 5.02523L11.5208 3.5284C12.1805 2.89269 13.0633 2.541 13.9796 2.54896C14.8973 2.55693 15.7752 2.92503 16.4241 3.57395C17.073 4.22288 17.4411 5.10073 17.4491 6.01842C17.457 6.9347 17.1054 7.8175 16.4697 8.47728L13.4729 11.4741C13.4729 11.4741 13.4728 11.4741 13.4728 11.4741C12.8165 12.1302 11.9264 12.4988 10.9984 12.4988C10.072 12.4988 9.18343 12.1315 8.52742 11.4776C8.43798 11.3836 8.38855 11.2585 8.38968 11.1286C8.39082 10.9975 8.4434 10.8721 8.53611 10.7794C8.62881 10.6867 8.75422 10.6341 8.88531 10.633C9.0153 10.6319 9.14057 10.6814 9.23461 10.771C9.70306 11.2374 10.3372 11.4992 10.9984 11.4992C11.6613 11.4992 12.2971 11.236 12.7659 10.7673ZM7.23087 9.23207L7.23082 9.23212L4.23371 12.2292C3.99648 12.4592 3.80718 12.7339 3.67676 13.0375C3.54574 13.3425 3.47677 13.6706 3.47389 14.0025C3.47101 14.3345 3.53426 14.6637 3.65996 14.9709C3.78566 15.2782 3.9713 15.5573 4.20603 15.792C4.44076 16.0268 4.71989 16.2124 5.02713 16.3381C5.33437 16.4638 5.66357 16.527 5.99552 16.5242C6.32747 16.5213 6.65552 16.4523 6.96053 16.3213C7.26413 16.1909 7.53884 16.0016 7.76881 15.7643L9.26592 14.2672L9.26598 14.2673L9.27202 14.261C9.31814 14.2133 9.37331 14.1752 9.43431 14.149C9.49532 14.1228 9.56093 14.109 9.62732 14.1084C9.6937 14.1078 9.75954 14.1205 9.82099 14.1456C9.88244 14.1708 9.93827 14.2079 9.98521 14.2548C10.0322 14.3018 10.0693 14.3576 10.0944 14.4191C10.1196 14.4805 10.1322 14.5463 10.1316 14.6127C10.1311 14.6791 10.1173 14.7447 10.0911 14.8057C10.0649 14.8667 10.0268 14.9219 9.97902 14.968L9.97896 14.968L9.97282 14.9741L8.47282 16.4741L8.47276 16.4741L8.46673 16.4803C8.14386 16.8146 7.75766 17.0812 7.33064 17.2647C6.90363 17.4481 6.44436 17.5447 5.97963 17.5487C5.5149 17.5527 5.05403 17.4642 4.62389 17.2882C4.19375 17.1122 3.80297 16.8523 3.47435 16.5237C3.14572 16.1951 2.88583 15.8043 2.70985 15.3742C2.53387 14.944 2.44531 14.4831 2.44935 14.0184C2.45339 13.5537 2.54994 13.0944 2.73337 12.6674C2.9168 12.2404 3.18344 11.8542 3.51773 11.5313L3.51778 11.5314L3.52392 11.5252L6.52387 8.52528C6.52389 8.52526 6.52391 8.52525 6.52392 8.52523C7.18027 7.86911 8.07032 7.50053 8.99837 7.50053C9.92645 7.50053 10.8165 7.86913 11.4729 8.52528L11.4728 8.52533L11.479 8.53132C11.5268 8.57744 11.5649 8.63261 11.5911 8.69362C11.6173 8.75462 11.6311 8.82023 11.6316 8.88662C11.6322 8.95301 11.6196 9.01885 11.5944 9.0803C11.5693 9.14175 11.5322 9.19757 11.4852 9.24452C11.4383 9.29146 11.3824 9.32859 11.321 9.35373C11.2595 9.37887 11.1937 9.39152 11.1273 9.39095C11.0609 9.39037 10.9953 9.37657 10.9343 9.35037C10.8733 9.32417 10.8181 9.28607 10.772 9.23832L10.7721 9.23827L10.7659 9.23207C10.2971 8.76339 9.66128 8.5001 8.99837 8.5001C8.33546 8.5001 7.69969 8.76339 7.23087 9.23207Z" fill="#111928" stroke="#1C64F2"/>
</g>
</svg>
