<svg width="20" height="20" viewBox="0 0 20 20" fill="none" xmlns="http://www.w3.org/2000/svg">
<g id="mdi:truck-trailer">
<path id="Vector" d="M18.3346 12.4997V14.1663H8.33464C8.33464 14.8294 8.07124 15.4653 7.6024 15.9341C7.13356 16.4029 6.49768 16.6663 5.83464 16.6663C5.17159 16.6663 4.53571 16.4029 4.06687 15.9341C3.59803 15.4653 3.33464 14.8294 3.33464 14.1663H1.66797V4.99967C1.66797 4.55765 1.84356 4.13372 2.15612 3.82116C2.46868 3.5086 2.89261 3.33301 3.33464 3.33301H14.168C14.61 3.33301 15.0339 3.5086 15.3465 3.82116C15.659 4.13372 15.8346 4.55765 15.8346 4.99967V12.4997H18.3346ZM5.83464 13.333C5.61362 13.333 5.40166 13.4208 5.24538 13.5771C5.0891 13.7334 5.0013 13.9453 5.0013 14.1663C5.0013 14.3874 5.0891 14.5993 5.24538 14.7556C5.40166 14.9119 5.61362 14.9997 5.83464 14.9997C6.05565 14.9997 6.26761 14.9119 6.42389 14.7556C6.58017 14.5993 6.66797 14.3874 6.66797 14.1663C6.66797 13.9453 6.58017 13.7334 6.42389 13.5771C6.26761 13.4208 6.05565 13.333 5.83464 13.333Z" fill="#9CA3AF"/>
</g>
</svg>
