<svg width="16" height="17" viewBox="0 0 16 17" fill="none" xmlns="http://www.w3.org/2000/svg">
<g id="pencil-alt">
<path id="Vector" d="M13.9328 2.56904C13.6327 2.26909 13.2258 2.10059 12.8016 2.10059C12.3773 2.10059 11.9704 2.26909 11.6704 2.56904L5.60156 8.63784V10.9002H7.86396L13.9328 4.83144C14.2327 4.5314 14.4012 4.12451 14.4012 3.70024C14.4012 3.27598 14.2327 2.86909 13.9328 2.56904Z" fill="#111928"/>
<path id="Vector_2" fill-rule="evenodd" clip-rule="evenodd" d="M1.60156 5.3002C1.60156 4.87585 1.77013 4.46888 2.07019 4.16882C2.37025 3.86877 2.77722 3.7002 3.20156 3.7002H6.40156C6.61374 3.7002 6.81722 3.78448 6.96725 3.93451C7.11728 4.08454 7.20156 4.28802 7.20156 4.5002C7.20156 4.71237 7.11728 4.91585 6.96725 5.06588C6.81722 5.21591 6.61374 5.3002 6.40156 5.3002H3.20156V13.3002H11.2016V10.1002C11.2016 9.88802 11.2858 9.68454 11.4359 9.53451C11.5859 9.38448 11.7894 9.3002 12.0016 9.3002C12.2137 9.3002 12.4172 9.38448 12.5672 9.53451C12.7173 9.68454 12.8016 9.88802 12.8016 10.1002V13.3002C12.8016 13.7245 12.633 14.1315 12.3329 14.4316C12.0329 14.7316 11.6259 14.9002 11.2016 14.9002H3.20156C2.77722 14.9002 2.37025 14.7316 2.07019 14.4316C1.77013 14.1315 1.60156 13.7245 1.60156 13.3002V5.3002Z" fill="#111928"/>
</g>
</svg>
