<svg width="14" height="14" viewBox="0 0 14 14" fill="none" xmlns="http://www.w3.org/2000/svg">
<g id="pencil-alt">
<path id="Vector" d="M12.1882 1.81029C11.9257 1.54783 11.5697 1.40039 11.1984 1.40039C10.8272 1.40039 10.4712 1.54783 10.2086 1.81029L4.89844 7.12049V9.10009H6.87804L12.1882 3.78989C12.4507 3.52735 12.5981 3.17132 12.5981 2.80009C12.5981 2.42886 12.4507 2.07283 12.1882 1.81029Z" fill="#111928"/>
<path id="Vector_2" fill-rule="evenodd" clip-rule="evenodd" d="M1.39844 4.1998C1.39844 3.8285 1.54594 3.47241 1.80849 3.20986C2.07104 2.9473 2.42713 2.7998 2.79844 2.7998H5.59844C5.78409 2.7998 5.96214 2.87355 6.09341 3.00483C6.22469 3.13611 6.29844 3.31415 6.29844 3.4998C6.29844 3.68546 6.22469 3.8635 6.09341 3.99478C5.96214 4.12605 5.78409 4.1998 5.59844 4.1998H2.79844V11.1998H9.79844V8.3998C9.79844 8.21415 9.87219 8.03611 10.0035 7.90483C10.1347 7.77355 10.3128 7.6998 10.4984 7.6998C10.6841 7.6998 10.8621 7.77355 10.9934 7.90483C11.1247 8.03611 11.1984 8.21415 11.1984 8.3998V11.1998C11.1984 11.5711 11.0509 11.9272 10.7884 12.1898C10.5258 12.4523 10.1697 12.5998 9.79844 12.5998H2.79844C2.42713 12.5998 2.07104 12.4523 1.80849 12.1898C1.54594 11.9272 1.39844 11.5711 1.39844 11.1998V4.1998Z" fill="#111928"/>
</g>
</svg>
