<svg width="14" height="14" viewBox="0 0 14 14" fill="none" xmlns="http://www.w3.org/2000/svg">
<g id="truck">
<path id="Vector" d="M5.6 11.55C5.6 11.8285 5.48938 12.0955 5.29246 12.2925C5.09555 12.4894 4.82848 12.6 4.55 12.6C4.27152 12.6 4.00445 12.4894 3.80754 12.2925C3.61062 12.0955 3.5 11.8285 3.5 11.55C3.5 11.2715 3.61062 11.0045 3.80754 10.8075C4.00445 10.6106 4.27152 10.5 4.55 10.5C4.82848 10.5 5.09555 10.6106 5.29246 10.8075C5.48938 11.0045 5.6 11.2715 5.6 11.55ZM10.5 11.55C10.5 11.8285 10.3894 12.0955 10.1925 12.2925C9.99555 12.4894 9.72848 12.6 9.45 12.6C9.17152 12.6 8.90445 12.4894 8.70754 12.2925C8.51062 12.0955 8.4 11.8285 8.4 11.55C8.4 11.2715 8.51062 11.0045 8.70754 10.8075C8.90445 10.6106 9.17152 10.5 9.45 10.5C9.72848 10.5 9.99555 10.6106 10.1925 10.8075C10.3894 11.0045 10.5 11.2715 10.5 11.55Z" fill="#1E429F"/>
<path id="Vector_2" d="M2.09844 2.7998C1.91279 2.7998 1.73474 2.87355 1.60346 3.00483C1.47219 3.13611 1.39844 3.31415 1.39844 3.4998V10.4998C1.39844 10.6855 1.47219 10.8635 1.60346 10.9948C1.73474 11.1261 1.91279 11.1998 2.09844 11.1998H2.83344C2.91377 10.8042 3.12839 10.4485 3.44095 10.1931C3.7535 9.93761 4.14476 9.79805 4.54844 9.79805C4.95211 9.79805 5.34337 9.93761 5.65593 10.1931C5.96848 10.4485 6.18311 10.8042 6.26344 11.1998H6.99844C7.18409 11.1998 7.36214 11.1261 7.49341 10.9948C7.62469 10.8635 7.69844 10.6855 7.69844 10.4998V3.4998C7.69844 3.31415 7.62469 3.13611 7.49341 3.00483C7.36214 2.87355 7.18409 2.7998 6.99844 2.7998H2.09844ZM9.79844 4.8998C9.61279 4.8998 9.43474 4.97355 9.30346 5.10483C9.17219 5.23611 9.09844 5.41415 9.09844 5.5998V9.8348C9.32366 9.78879 9.55574 9.78761 9.78142 9.83131C10.0071 9.87501 10.222 9.96275 10.4137 10.0895C10.6055 10.2163 10.7704 10.3796 10.899 10.5701C11.0277 10.7606 11.1175 10.9746 11.1634 11.1998H11.8984C12.0841 11.1998 12.2621 11.1261 12.3934 10.9948C12.5247 10.8635 12.5984 10.6855 12.5984 10.4998V6.9998C12.5984 6.81417 12.5246 6.63615 12.3933 6.5049L10.9933 5.1049C10.8621 4.97362 10.6841 4.89984 10.4984 4.8998H9.79844Z" fill="#1E429F"/>
</g>
</svg>
